<svg xmlns="http://www.w3.org/2000/svg" viewBox="0 0 1758.3 2258.4"><path d="M955.1 1252.5c10.2-5.8 16.2-15.4 27.5-17.3 1.3-.2 3.1-.3 3.7-1.2 4.9-6.4 12.5-6.8 19.3-9.2 3.7-1.3 7.2-2.8 11.2-3.4 5.8-.9 11.8-2.1 16.1-7.1 2-2.3 5-3.5 8-3.7 15.2-.7 27.5-9 40.6-15.2 4.2-2 8.2-4.4 12.9-5 14.5-1.9 28.6-6 43.5-5.3 9.7.4 19.3.4 27.2 7.2 2.1 1.8 4.8 2.3 7.6 1.9 7.8-1.3 13.9 2.4 20.4 6 11.3 6.4 20.7 15.7 31.4 22.3 14.5 8.9 17.5 22.2 21.3 36.1.3 1 0 2.1.5 2.9 6 10.2.8 20-1.2 29.9-.4 1.9-1.2 4-2.4 5.4-8 9.3-15 19.6-24.7 27.4-12.4 10-24.7 20.1-38 29-1.1.7-2.2 1.8-3.4 2-10.3 1.4-16.8 8.5-23.7 15.2-5.3 5.1-11.8 8.3-18.5 11.5-12 5.6-24.4 10.2-36.1 16.9-10.9 6.2-22.5 11.2-34.2 15.8-10.5 4.2-20.3 10.1-31.4 12.7-1.5.3-3.1 1.5-4 2.8-3.3 4.2-7.9 6.7-12.6 7.6-11.6 2.4-21.9 7.7-32.3 12.7-10 4.7-20.7 7-30.7 11.8-8.6 4.1-16.9 9-26.3 11.3-.6.1-1.1 1.1-1.6 1.1-11.4-.5-18.2 8.1-27 13-12.2 6.8-25.7 10.9-38.4 16.7-12.1 5.5-25.6 6.5-37.4 12.8-4.4 2.4-10.1 3.9-15.5 2.6-6.1-1.4-11.3.5-15.9 4.1-4.8 3.7-10 4.2-15.7 5.3-11.3 2.2-22.8 3.8-34 7.3-8.1 2.5-15.1 6.1-22.5 9.8-6.8 3.4-14.7 3.6-22 5.6-4.4 1.2-9.1 1.9-13.2 3.9-4 1.9-8 3.3-12.2 4.4-6.4 1.7-12.6 3.9-18.8 6.5-12.3 5.1-25.4 7.9-38.7 8.7-7.4.4-15-1.1-22.6-1.2-5.3-.1-8.1 1.9-9.2 7-4.9 23.1-10.5 46.1-14.6 69.3-2.1 11.7-5 23.4-4.2 35.5.1 1.3 0 2.8-.6 3.9-8.8 18.5-2.4 38.6-5.9 57.7-1.2 6.6 1.6 11.7 7.9 14.6 1.2.6 2.7 1 3.4 2 8.9 11.4 21.8 12.2 34.7 13.5 4 .4 7.9 1.5 11.1 4.1 3.8 3 8.3 4.4 12.9 4.9 14.3 1.5 27.3 6.8 39.8 13.5 2 1.1 3.7.8 5.7.3 6.9-1.9 13.3-1.8 20.3 1 7.2 2.9 15.7 3.1 23.4 3.2 14 .3 26.7 4.9 39.8 8.1 3.9 1 7.6 2.1 11.7 1 3.3-.8 6.8-.9 9.8.8 3.5 2 7.2.9 10.8 1.3 4.3.5 6.3-2.2 6.7-5.8.5-5.9 1.7-11.9.8-17.9-2.5-17.2-1.6-34.6-3.6-51.8-.1-1 0-2-.2-3-.7-5-2.2-5.8-6.4-3.1-1.1.7-2.1 1.7-3.2 2.4-7.7 5.2-13.5 5.3-20.2.2-7.4-5.6-10.1-12.7-7.9-20.7 1.2-4.6 4.1-7.8 8.7-8.7 4.2-.8 6.7 2.1 8.6 5.4.8 1.4 1.7 2.9 2.9 4 3.4 3.5 5.9 3.3 7.4-1.1 2.1-6.3 5.4-12.2 6.1-19 .2-1.6.4-3.4 1-4.9 1.7-4.4 10.1-11 12.9-9.9 4.7 1.8 5.1 6.6 6.4 10.6 1.2 3.8 2 7.9 1.1 11.8-3.1 12.4 1.3 24.5 1.3 36.6 0 16 6.6 31.1 4.8 47.3-.6 5.2.2 10.6 2.3 15.7 3.7 8.6 9.2 14.6 19.4 14.3 9.5-.3 19 2.9 28.6-.9 3.3-1.3 7.8.6 11.8 1 11.4 1.1 22.5-1.7 33.8-2.2 1.6-.1 3.5-.6 4.6-1.6 4.3-3.9 9.5-4.3 14.8-5.1 6.8-.9 14-.9 20-5.5 1.4-1.1 3.8-.9 5.8-1.2 2.3-.3 4.7-.1 6.9-.6 18.3-4.6 36.8-8.4 54.6-15.1 3.1-1.2 6.2-2.5 9.4-3.2 7.1-1.4 12.8-4.2 17.4-10.4 3.2-4.2 9-7.4 13.8-8.7 7.4-2 14-6.4 21.7-7.2 1-.1 2.3 0 2.9-.6 8.3-7.5 19.5-10 28.5-15.9 15.2-9.9 29.7-21.2 43.9-32.5 7.8-6.2 15.8-12 24.6-16.7 2.6-1.4 5-3.6 6.6-5.9 6.4-9.1 15.2-15.7 23.6-22.5 1.3-1.1 2.9-1.8 3.9-3.1 12.4-14.5 28.5-24.8 42.3-37.8 4.2-4 7.3-8.8 7.6-14.8.5-7.6 1.2-15 .3-22.8-1.1-9.7-.2-19.8 1.6-29.6 4.2-22.1 2.5-44.2 1.3-66.5-.6-11.6-.5-23.2-2.4-34.7-.8-5.1 3.2-10.2 2.5-15.6-1.8-14.6 1.3-29.1 1-43.7-.2-10.2-.6-21.3 4.2-31.4 1-2 1.1-4.6.9-6.8-1.1-10.8 2-21.1 3.9-31.6.6-3.3 1.8-6.5 4-9 1.9-2.1 3.3-5.6 7.1-4.2 2.9 1 3.6 3.9 3.8 6.6.5 6.7.6 13.6-2.9 19.5-3.1 5.2-3.6 10.5-4 16.2-.8 11.6-2 23.2-3 34.7-.6 6.3-.8 12.6-.1 19 .3 2.3.6 4.8-.1 6.9-4 14.2-2.4 28.3-.5 42.5 1.9 14.5.1 29.1-.7 43.7-.1 2-.7 4-.6 6 1.1 27-.6 53.8-2.1 80.7-.1 2 0 4.1.7 5.9 1.3 3.3 3.7 4.6 7.1 2.8.6-.3 1.3-.6 1.6-1.1 8.2-12.1 22.9-15.3 33.5-24.2 2.8-2.4 6-3.3 9.1-1 3.1 2.3 3.2 5.7 1.8 9.1-3.5 8.1-9.4 14.1-17.7 16.5-18.4 5.3-27.8 19.5-35.2 35.2-4.1 8.6-.9 18.4-.7 27.7.4 18 3.1 35.7 4.9 53.6 1.4 14.2.6 28.6.5 42.9-.1 9.7 1.7 19.1 2.7 29.9 5.7-3.1 10-6.4 13.9-10.3 8.4-8.5 19.4-14.1 26.4-24.2.9-1.3 2.6-2.1 4.1-2.7 3.6-1.5 5.9-.1 6 3.9.2 5.3-1.8 9.6-6 13.1-10.1 8.5-18.3 18.5-25.6 29.7-4.4 6.7-10.9 12.3-15 19.6-2.1 3.7-3.2 7.3-2.6 11.4 2.2 13.1 2.9 26.4 5.8 39.5 2.1 9.9 1.8 20.4 2.2 30.6.3 7.6-.1 15.3 4.3 22.2 1 1.6 1.5 3.9 1.3 5.7-1.5 15.4 1.1 30.5 2.2 45.8.6 8.3 1.3 8.6 8.8 5.5 6-2.5 8.6-1.5 10.2 4.7.7 2.8 1.2 6 .7 8.9-2 12.4-3.7 25.1-9.5 36.4-2.9 5.6-4 10.9-2.9 17.2.9 5.2.5 10.6.6 15.9.1 4.9-2.2 9-4.3 13.1-1.2 2.4-3.1 4.7-6.1 4.4-3.5-.4-3.3-3.7-3.8-6.2-.4-2.3-.3-4.7-.7-6.9-1.7-7.9-5.9-9.5-11.8-4.2-5.2 4.7-10 9.8-14.3 15.3-3.9 4.9-9.2 8.9-12.5 13.7-10.8 15.5-28.5 22.9-40.4 36.8-1 1.2-2.7 2-4.1 2.7-10 5.3-19.5 11.6-27.6 19.4-4.5 4.3-9.6 7.1-15.3 9.1-14 5-27.3 11.8-41 17.4-9 3.7-18.8 6.3-27.2 11.8-5.3 3.5-11.4 5.3-17.8 5.8-3.4.3-6.4 1.3-9.5 2.7-6.4 2.9-13.1 4.8-20.3 4.7-5-.1-9.9 1.3-14.6 2.9-6.5 2.2-13.1 3.5-20 4.6-12 2-24.3 3.8-36 7.7-4.8 1.6-9.4 2.6-14.5 2.8-8.7.3-17.1 2.3-25.6 3.7-12.7 2.1-25.3 5.1-38.3 4.7-3-.1-6.1-.2-8.8 1.2-11.1 5.8-23.3 8.4-35.2 11-11.2 2.5-22.5 5.2-34.1 6.2-10.5.9-21 3-31.2 5.6-18.1 4.5-35.9 8.8-54.9 7.4-9.4-.7-19.1 1.1-28.8 1-3.7-.1-7.4 0-11-.4-3.7-.5-7.1-1-10.7.9-1.9 1-4.6 1.4-6.8 1-12.1-2.1-24.6-1.4-36.6-4.7-3.2-.9-6.5-1.4-9.2-3.6-1-.8-2.3-2.1-3.4-1.9-15.3 1.7-24.1-13.1-38-14.7-1.2-.1-2.6-1.2-3.2-2.2-4.5-7.4-12.8-10.4-18.6-16.2-8.4-8.5-16.8-16.9-22.1-27.8-1.1-2.4-3-4.4-4.5-6.6-3.1-4.7-2.9-8.7.7-11.5 3.6-2.8 7.3-3 10.8.4 6.4 6.3 14.5 10.9 18.1 19.6 1.1 2.6 3.1 4.7 5.8 5.1 10.6 1.3 17.7 9 25.8 14.5 6.3 4.3 12.4 7.5 20.1 6.9 1.3-.1 3-.4 3.9.2 10.3 6.9 23.2 4.5 33.8 9.9 4.1 2.1 8.1 2.5 12.4.6 3.1-1.4 6.6-1.9 9.8-1.2 15.1 2.9 30.2 0 45.3 1.3 5.6.5 11.3.7 16.8-1.1 2.2-.7 4.7-1.2 6.9-.7 12.7 2.8 24.9 1.2 36.9-3.4 2.4-.9 5.2-.7 7.9-.9 21.2-1 41.6-7.2 62.7-9.1 1.3-.1 2.7-.4 3.8-1.1 16.9-11 36.6-12 55.5-16.2 20.8-4.7 42.2-5.2 63-9.3 7.1-1.4 14.2-3.2 21.3-4.8 7.8-1.8 15.2-4.7 23.4-4.9 4.6-.2 7.2-2.7 9.1-7.6 4.3-11.4 6.2-23 7.2-35 .5-6.5-1.1-11.6-6.5-15.8-5.2-4.1-10.1-8.8-13.3-14.7-3.8-6.9-3.3-13.8 1.2-18.4 5-5.1 11.3-6.2 16.7-1.4 6.7 5.9 12.6 3.6 14.5-4.9 1.1-5.2 3-10.2 4.6-15.3.8-2.5 1.5-5.5 4.8-5.7 3.7-.3 3.8 3 4.7 5.5 2.8 8.2.7 16.5.3 24.7-.1 2.3-.7 4.6-.7 6.9 0 4.1 1.8 7.3 6.2 7.7 5 .4 9.3 3.7 14.5 3.3 3.4-.2 5.7 1.8 6.4 5.1.6 3.1-1.6 5-3.8 6.5-1.9 1.3-4.2 2.7-6.3 2.8-7.2.2-13.1 4.6-20.1 5.7-4.1.7-6.4 3.3-5.9 7.8.3 2.7.2 5.4-1.5 7.7-4.7 6.4-4.4 13.8-4.4 21.1 0 5.9 1.4 7.1 7.3 5.8 8.1-1.8 16.3-3.7 24.1-6.3 15-5 29.9-10.4 44.7-16 4.6-1.8 8.9-4.5 12.9-7.4 9.6-6.8 21.6-8.4 31.3-15.2 16.8-11.8 36.5-19.2 51.5-33.6 7.4-7.2 13.1-16.5 21.3-22.3 9.5-6.7 16-15.6 23.6-23.7 7.4-7.9 10.6-17.1 10-28.2-1.1-18.2-.8-36.6-1.7-54.8-.6-10.9-.3-22.6-4.1-32.5-5.4-14.1-3-28.1-4.5-42.1-1.3-12.2-3.6-24.2-5.5-36.3-.2-1.3-.7-2.6-.9-3.9-1-9.6-4.3-11.6-12-5.6-13.8 10.8-27.6 21.7-38.4 35.8-7 9.1-17.3 13.9-26.7 19.9-12.3 7.9-27 11.1-38.1 21.2-2.9 2.7-6.1 5.2-10.6 4.6-2.1-.3-4 .6-5.5 2.1-8 8-18 12.2-28.6 15.5-.6.2-1.4.3-1.8.7-14.1 14.8-35.3 16.3-51.6 27.1-1.9 1.2-4.3 1.7-6.6 2.3-5.8 1.3-11.1 3.8-16.5 6.5-10.7 5.4-22.5 8-34.2 10.6-4 .9-7.8 1.5-11 4.3-.8.6-1.6 1.5-2.5 1.6-14.8 1.6-27.7 10-42.4 12.1-13.5 2-27 3.8-40.5 6-10.4 1.7-21 2.9-31.2 5.8-6.1 1.7-6.7 2.5-6 9.2.9 8 .6 15.9-.4 23.9-1.1 8.9-1.7 17.8.6 26.8 2.1 7.9-.6 19.7-11.2 24.1-3 1.3-5.3 1-6.7-1.9-2-4.1-4.3-8-4.5-13-.5-10.6-1.5-21.2-6.2-31.1-2.7-5.7-2.2-12.4-2.6-18.7-.2-2.3 0-4.7-.3-7-1.1-9.1-6.8-12.7-15.8-12.4-21.5.7-42.9 3.7-64.5 2.5-7.5-.4-15.3-1.2-22.7 1.8-1.4.6-3.5 1-4.8.4-14.1-5.7-29.4-3.4-44.1-6.8-12.2-2.8-25.3-4.2-38.3-4-9.6.1-18.8-1-27.5-6.9-5.8-4-13.5-5.8-20.6-7-11.8-2-21.8-8-32.3-12.8-7.1-3.2-9.2-15.8-4.8-22.1 3.3-4.7 8.8-5.9 12.7-1.7 8.5 9.2 19.1 12.9 31.2 13.5.7 0 1.3.1 2 .4 15.5 5.7 31.5 7.6 47.9 7.5 2.5 0 5.1 1.3 7.7 2 5.5 1.5 10.9 2.9 16.6 2.7 11.6-.4 11.6-.4 14-11.7.4-1.9 1-3.9 1.8-5.7 2.7-6.3 3.9-12.6.6-19.2-1.7-3.3-2.1-7.3-.1-10.6 8.3-14 8.2-30 11-45.3 1.8-9.8 2.8-19.8 4.9-29.5 1.5-6.8 2.8-13.5 6.7-19.6 4.3-6.8 2.1-10.9-5.8-13.1-12.5-3.5-25.2-6.4-38.2-7.5-2.9-.2-5.7-1.8-8.5-2.9-17.4-6.5-35.4-10.3-53.7-13.3-14.3-2.3-28.2-7.3-42-12.3-2.2-.8-4.2-1.9-6.6-2-3.5-.1-5.9 1.3-6.2 5-.3 3-.5 6-.3 9 .7 12-3.6 23.6-3.4 35.6.1 4.3 0 8.6.5 12.9 1.1 8.6 1.4 17.3-.3 25.9-2.1 10.6-.6 21.3-.3 31.9.7 24.5-1.3 49.1.2 73.6.1 1.3-.1 2.7-.4 3.9-4.5 14.8-3.4 30.3-5.9 45.2-1.9 11.2-1.8 22.6-4 33.7-.8 4-1 8 0 11.9 1.6 6.3 3.6 7.1 9.9 3.8.9-.5 1.7-.9 2.5-1.3 2.3 1.1 2.9 3.4 2.3 5.1-2.7 7.9-6 15.5-12.8 20.9-3.1 2.4-5.9 4.4-9.9 2.5-4-1.8-6-4.9-6.4-9.3-1-12-1.7-24.1.4-35.8 3.3-18.5 2.1-37.1 4-55.6 1.7-16.9.4-33.9 2.9-50.7.4-2.6.1-5.3-.4-7.9-2-12.2-3-24.4-.3-36.6.1-.3.2-.7.1-1-3.8-20.1 1.7-40.1.4-60.3-.8-12.2-1.4-25.1 1.4-37.6 1.1-5 .1-10.7-1.1-15.8-2.2-8.9.4-17.2 2.2-25.5 2.3-10.9 2.5-21.8 2-32.8-.6-13.1 1.1-25.9 3.9-38.6 1-4.6 1.8-9.1 1.6-13.9 0-1.6-.2-3.6.5-4.9 7.2-13.3 5.2-28.5 8.8-42.4 2.5-9.3.1-18.7 2.9-27.9 3-9.7 3.9-20 8.1-29.5 1.1-2.5 2.2-4.9 2.1-7.6-.2-4.8-3.6-7.8-7.8-6.1-10.7 4.4-22.2 3.4-33.2 5.7-.6.1-1.4.3-2 .1-9.3-4.1-19.6-6.2-28-12.2-4.8-3.4-6.8-8.7-5.1-15.1 1.1-4.2 2.2-8.4 4.1-12.3 8-15.6 16-31.1 27.5-44.9 5.7-6.8 13.3-13 15.9-22.3 10.4-8.2 14.7-21.2 23.9-30.4 10.3-10.3 21-20.1 28.6-32.9 3.7-6.2 9.8-10.9 15.1-15.8 14-12.7 25.8-28 42.6-37.5 4.6-2.6 6.6-7.5 10.7-10.3 17.5-11.6 32.4-26.5 50.2-37.8 11.2-7.1 21.6-15.6 32.2-23.6 2.4-1.8 4.5-4 7.4-5.1 13-4.6 23.9-13.1 36.4-18.5 13.5-5.8 24.5-15.7 37.6-22.2 14.9-7.4 29.5-15.1 45-21.3 5.5-2.2 11-4.8 16-8.1 4.9-3.2 9.9-5.5 15.6-6.1 14.8-1.6 28.2-7.6 41.5-13.9 7.3-3.4 14.5-6.6 22.6-7.3 3.5-.3 6.2-2.1 9.1-3.9 7.7-4.9 15.8-8.5 25.2-8.5 2 0 4-.4 5.9-.7 7.2-1.4 9-.6 10.5 4.8 1.6 5.8-.8 11.5-5.8 13.3-2.2.8-4.6.8-6.9 1.1-23.8 3.3-46.4 10.9-68.6 20.1-8.9 3.7-18.1 6.7-27.2 9.8-4.1 1.4-8.3 2.5-12 4.9-16 10.5-35.3 13.5-52 22.6-7 3.8-14.3 7.2-21 11.5-21.4 13.5-44.9 22.9-67 35.1-14.6 8-27.7 18.2-41.9 26.7-12.7 7.6-23.8 17.9-36.9 25.2-3.4 1.9-6.1 5.1-8.8 8.1-10.2 11.1-21.1 21.2-33.3 30-6.3 4.6-10 11.4-15.7 16.6-7.6 6.9-15.1 14-23.1 20.5-2 1.7-3.8 3.7-5.4 5.9-9.3 13.3-19.1 26.3-29 39.1-8.5 11-15.8 22.9-25.3 33.1-5.7 6.1-10 13.2-14 20.6-1.9 3.6-3 7.4-3.4 11.4-.9 8 4 13.8 12 15 17.4 2.6 34.8 2.8 52.3 2.5 3.2 0 5.8 2.3 8.6 2.1 11.7-.8 22.7 2.1 34 4.2 6 1.1 11.8-1.9 17.6-3.3 16-4.1 32.3-7.2 46.8-15.8 2.5-1.5 5.4-2.7 8.3-3.4 4.8-1.2 9.9-1.5 12.8-6.5.5-.9 2.3-1.7 3.4-1.7 8.7 0 15.9-4 23-8.4 1.1-.7 2.5-1.4 3.7-1.4 10.8.5 20.8-3.5 31.3-4.9 6-.8 11.8-1.9 17.2-4.7 8-4.1 16.2-6.9 25.5-7.8 11.4-1.2 22.7-4.6 33.7-8.5 8.4-3 17.3-4.8 26-6.8 6.5-1.5 13.2-2.3 17-9 .6-1.1 1.9-2.1 3.1-2.4 13.7-3.1 24.4-13.2 38.7-15.4 9.9-1.5 18.7-8.5 28.7-11 14.7-3.6 27.4-11.7 40.9-18 9.9-4.6 20.2-8.2 30.3-12.3 7-2.9 14.1-5.6 20.8-9.1 8-4.2 17.3-4.9 25.2-9.3.6-.3 1.4-.2 1.9-.6 11.3-8.4 25.8-10.6 37-19.1 8-6.1 18.2-7.7 26.7-13.2 3.5-2.3 7.4-4 10.8-6.8 4.1-3.4 8.3-6.6 13.2-8.8 3.6-1.6 7.3-3.7 9.9-6.6 4-4.4 8.6-7.1 14.1-8.8 4.9-1.5 8.9-4.2 11.8-8.6 3.7-5.7 9.5-9.3 14.7-13.3 6.9-5.3 7.8-9.9 5.5-18.3-3.9-14.2-11.2-26.4-21.2-36.7-5.7-5.8-12.9-10.7-20.2-14.4-15-7.7-30.5-14.3-45.9-21.2-2.7-1.2-5.8-2.3-8.6-2.3-13.5.2-27.2-2.3-40.6 2.6-4 1.5-8.5 1.6-12.7 2.4-2.6.5-5.5.3-7.8 1.4-8.6 3.9-17.2 6.3-26.8 6.6-5.5.2-11 4.3-16.4 6.9-5.4 2.6-10.8 5.2-17 5.4-2.7.1-5.4.7-7.5 2.5-6.2 5.1-13.6 6.9-21.2 7.8-5.2.6-9.2 3.6-13.9 5.3-2 .8-4.3 2.4-9.2-.1zm-177.2 683.9c-.5 4 2.5 5.8 4 8.2 7.4 12.1 13.4 24.5 10.2 39.3-.7 3.1 1 4.6 3.4 5.1 9.9 2 19.8.8 29.6-1.1 3.2-.6 4.6-3.8 4.1-7.1-.5-3.4-2.8-5.2-6.2-5.3-1.3-.1-2.6.5-3.9.5-13.6.3-18.9-5.9-16.5-19.3 3.9-21.4 14.7-38.9 30.4-53.6 4.8-4.5 6.3-4.5 12.3-.9 1.4.9 2.7 1.9 4.1 2.8 5.8 3.8 10.1 2.8 12.3-3.7 1.7-4.9 4.4-8.9 7.8-12.6 8.2-8.9 18.8-6.8 23.5 4.6 1.3 3.1 2.5 6.2 4.1 9.1 2.9 5.4 4 10.9 4.4 17 .6 8.4-.9 16.6-.1 24.9 1 11.3.9 22.5-.4 33.7-.2 2-.3 4 1.5 5.5 2.4 2 11.2 2.4 13.3.5 4.1-3.7 2.8-7 .2-11.3-6.2-10.2-7.6-20.9-2.5-32.4 4.5-10.3 7.5-21.3 11.8-31.8 3.7-8.9 8.2-17.4 12.8-25.9 1.7-3.2 4.2-6 6.8-8.6 2.3-2.3 5.4-5 8.8-2.9 3.4 2.1 2.2 6 1 9.1-1.2 3.4-3.6 6.3-2.6 10.2.7.2 1.4.6 1.9.5 10.9-2.7 14.9.7 13.5 11.7-.6 4.9-1.6 9.8-2.5 14.7-1.1 5.5 0 10.7 2.8 15.4 2.2 3.8 6.1 5.2 10.3 5 4.4-.2 5.8-3.7 6.9-7.4 1.1-3.9 1.7-7.8 1.6-11.8-.3-16.2 6.6-29.5 16.2-41.8 1.2-1.5 3-2.6 4.6-3.7 1.4-.9 2.9-1.8 4.6-.8 1.7 1 1.6 2.7 1.2 4.4-.9 4.3-2.6 8.1-5.1 11.8-3.7 5.5-7.3 11.6-5.6 18.6 1.2 4.8 2.7 9.6 4 14.4 1.7 6.1 7.2 10.4 12.8 11.1 6.7.8 11.1-2.7 13.6-8.1 3.1-6.8 8.1-13.1 7.4-21.4-.3-3.1 1.8-5.6 3.2-8.2 4.2-7.7 7.4-15.6 4.6-24.7-.6-2.1-.2-4 .7-5.8 2.4-4.8 1.8-9.7 1.1-14.7-1-6.6-1.7-13.2-2.6-19.8-.6-4.7.3-9.3 1.6-13.8 1.1-3.7 3.9-6.4 8.1-6.2 4 .2 5.5 3.3 6.4 6.7.3 1.3.3 2.7.6 3.9 2.7 11.2 6.9 22 8.9 33.5 1.5 8.7 5.4 9.4 12.9 4 8.4-6 18.3-6.7 25.6.4 7.9 7.6 18.3 10.7 26.5 17.5 3.9 3.2 7.6 1.9 8-2.8.5-5.7 2.8-10.9 3.6-16.5 2.1-16 9.8-29.4 20-41.5 3.4-4.1 7.1-8 11.6-10.8 5.2-3.2 9-2.5 13.2 2.2 4.7 5.3 5.2 15 .6 22.3-5.6 9.1-9.4 19.1-14.5 28.4-2.3 4.1-2.9 8.6 1.2 11.7 4 3.1 7.5.1 10.7-2.5.5-.4 1-.9 1.4-1.4 8.1-9.9 21.1-13.9 28.7-24.4.4-.5 1.1-.7 1.7-1 11.6-5.3 21.5-13.3 31.5-20.9 8.3-6.3 15.7-13.5 14.3-25.5-.3-2.6-.1-5.4-.7-7.9-3-12.5-1.8-25-.7-37.5.4-4.3.4-8.5 0-12.9-1.6-18.9-4.1-37.7-4.2-56.6 0-10 .2-20-.3-30-.3-6.8-3.3-7.7-9-3.7-6.1 4.3-10.6 10-15.1 15.7-9.1 11.5-23.1 17.4-32 29.3-7.2 9.6-17 16.7-26.9 23.4-6.9 4.6-13 11.1-20.2 14.2-12.9 5.7-19.3 19.1-32.2 24.4-2.9 1.2-4 5.4-7.2 6.7-13.5 5.5-25.3 14.1-38.3 20.5-6.8 3.4-13.4 7.5-19.7 11.8-11.3 7.6-22.9 14.7-36.5 17.1-8.8 1.6-16.2 5.5-23.5 10.3-3.9 2.5-7.8 5.8-12.6 5.8-9.7-.1-18.9 3.3-28.6 3.8-7.2.4-14.5 1.2-21.2 4.8-3.4 1.8-7.7 2.8-11.6 2.9-12 .3-23.3 4.3-35.1 5.6-3.7.4-6.6 3.7-10.5 2.8-9.2-2-18.2 2-27.5.3-3.7-.7-7.8.3-11.5-1.7-2.6-1.4-5-.4-7.7.5-10.3 3.4-21.1 2.9-31.5 2.4-11.8-.6-23.5-3.4-35.4-3-3.4.1-6.7.2-9.6-1.7-6-4-12.2-1.8-18.4-1.1-3 .3-3.8 2.4-3.4 5 2.3 13.1 3.4 26.5 10.5 38.3 3.1 5.1 7.2 10.2 8.3 15.8 2.8 13.3 10 20.5 23.5 21.8 4.2.4 7.3 2.9 9.7 6.4 2.2 3.2 1.3 5.4-1.7 7.5-3.3 2.3-7.6 1.3-11.2 2.3zm294.9-2.9c3.1.6 5.4.6 7.6-.4 12.9-5.9 25.3-12.8 36.9-21 1.1-.8 2.1-1.7 3-2.6 4.4-4.6 4-9.7-1-13.5-2.2-1.6-4.8-2.2-7.3-2.9-5.1-1.4-10-3.2-14.1-6.9-6.6-6-9.2-5.6-13.5 2.5-3 5.6-6.3 10.7-12.2 13.9-7.2 4-7.1 4.3-11.8-2.3-1.3-1.9-2.2-4.6-5-4-3.5.8-2.8 4-2.9 6.6-.7 9.7-2.6 19-8.2 27.3-1.9 2.7-3.4 5.7-4.7 8.8-1.8 4.5.6 7.5 5.1 6.2 6.3-1.9 13.1-2.9 18.1-7.8 3-3.2 6.5-4.9 10-3.9zm-313.6 59.9c4.6-1.1 9.4-1 11.6-5.4 2-4.1-1.7-6.6-3.9-9.4-6.3-8.5-11.5-17.6-14.8-27.8-3-9.4-5.5-10.3-14.6-7.7-1.6.5-3.2 1.1-4.8 1.2-8.3.6-12 6.3-14.2 13.3-1 3.1-1.7 6.5-2 9.7-.4 4.1-1.8 7.7-3.8 11.2-4.2 7.5-4.1 7.7 3.9 11.3 1.8.8 3.5 1.7 5.6 1.8 12.5 1.2 25.2-3.3 37 1.8zm198.2-19.9c3.1 1 5.8-.1 8.6-1.4 5.7-2.6 11.6-4.7 18-5.4 3.9-.4 7.8-1.6 11.4-3.1 5-2 7-7 4.4-10.1-4.5-5.5-12.6-6.1-17.9-1.5-11.2 9.8-15.7 10.2-28.8 2.6-3-1.7-5.6-2.1-7.8 1-5.1 7.1-11.1 13.1-18.7 17.5-2.4 1.4-4.2 3.6-3 6.6 1.2 3.1 4 2.8 6.8 2.6 5.5-.4 10.1-3.1 14.9-5.4 3.7-1.8 7.5-4.1 12.1-3.4zm-93 3.1c0 .4 0 1.8.3 3.1.7 2.9-1.7 7 3.2 8.2 4.2 1.1 7.8-.6 10.3-5.6 1.2-2.3 2.2-4.9 2.6-7.4 2.9-16.6.6-32.9-3.2-49-.4-1.7-1.1-3.2-3.1-3.3-1.7-.1-2 1.4-2.5 2.7-5.8 15.3-3.7 31.9-7.9 47.5-.1.8.3 1.9.3 3.8zm82.2-75c-11 9.2-10.3 23-15.1 34.6-.6 1.5-.7 4.2 1.7 5.1 2.4.9 3.8-1 4.7-2.7 6-11.6 7.3-24.3 8.7-37zm-219.3-7.2c-1.9 4.7-3.1 7.8-4.4 10.8-2 4.7-.5 9.2 1.1 13.5 1.6 4.5 5.8 3.9 9.3 3.4 3.6-.5 4.7-3.4 3.9-6.7-1.8-7.3-3.5-14.6-9.9-21zm451.2-57.9c2.6-.2 3.9-1.9 4-4.4.1-1.5-.9-2.5-2.4-2.4-2.3.1-3.3 1.8-3.6 3.9-.1 1.3.3 2.6 2 2.9zm45.5-1362c-.8-20.6-1.5-41.1-4.8-61.6-3.1-19.3-5.7-38.7-5.9-58.4 0-2.3.6-4.6 1-6.9 1.8-8.6 1.9-17 .5-25.8-2.1-12.6.3-25.1 1.9-37.6 1.2-8.9 2.6-17.8 3.1-26.8.4-8.2-1.1-9.8-8.8-12.2-3.5-1.1-7.1-2.1-10.7-2.4-18.6-1.8-36.9-5.6-54.7-10.5-13.9-3.9-27.9-8.1-41.5-13.4-10.3-4-20.6-8-29-15-6-5-12.3-9.1-19.5-11.9-5.9-2.3-11.6-5-18-5.9-2.6-.4-5.3-1.4-7.4-2.9-7.6-5.7-16-9-25.2-11.2-4.8-1.1-9.4-3.1-13.7-5.8-4.2-2.6-8.4-4.7-13.8-5-4.4-.2-9.3-2.2-12.9-4.8-12-8.5-26.3-10.9-39.8-15.3-8.9-2.9-18.1-1-26.4 5.2-5.7 4.3-12.2 7.7-18.4 11.4-10.1 6-21 11.7-28.8 21.1-6.4 7.7-13.2 15-21.1 21.2-1.3 1-2.9 2-3.6 3.4-5.4 10.7-15.7 17-23.2 25.9-10 11.9-24.1 18.7-37.8 25.4-8.1 3.9-16.6 7-22 14.9-1.2 1.8-3.6 3-5.6 4.1-9.1 5-16.2 12.7-24.9 18.2-3 1.9-3.3 5-2.4 8 6.7 23.7 2.2 46.8-3.1 69.9-1.6 6.9-1.7 13.8-.6 20.8 1.9 11.9.2 23.9.1 35.9-.1 13.1 1.9 25.8 3.5 38.7 3 24.1 7.7 48 9.3 72.3.7 10.4 3.7 20.3 5.1 30.5 1.1 7.7 1.5 15.2-.7 22.7-2 6.9-6.6 10.3-13.2 7.6-8.4-3.4-16.8-2.8-25.3-1.6-6 .8-11.2-1.6-16.5-3.1-5.2-1.6-10-2.2-15.5-.5-7.9 2.4-16.2 3.7-24.4 4.9-8.4 1.3-11.8-.9-15.6-8.9-.3-.6-.4-1.3-.7-1.9-5.7-11.6-3.3-16.5 9.7-19.2 11.2-2.3 11-3 6-13.1-5.3-10.6-10.5-21.6-5.5-34.1 1.3-3.3-.2-6.6-1.3-9.7-1.7-5.2-.9-10.2-.2-15.6 1.1-7.9 0-16.1-.6-24.2-.4-5.3-1.8-10.5-2.7-15.7-1.2-6.8-4.1-12.9-7.7-18.7-3.7-5.8-3.9-12.6-3.8-19.1.1-5.7-2.3-10.3-4-15.3-.4-1.2-1.4-2.3-3-2.2-1.5.1-2.4 1.3-2.7 2.5-1.5 6.5-2.7 13-2.7 19.7.2 21.2.5 42.5.9 63.7.1 6.9 3 13.7 1.6 20.7-.2.9.2 2.4.8 2.8 7.1 4.3 6.9 13.1 11.8 18.8 1.4 1.6 2.1 3.3 2.1 5.4 0 7.5-1.4 14.7-5.4 21-3.5 5.6-7.5 6.3-12.3 1.8-6.6-6.2-11.9-13.6-13.6-22.7-1.2-6.2-1.9-12.5-4.7-18.3-1.1-2.3-1.6-5.3-1.2-7.8 2.8-14.7.4-29.3-1-43.8-1-10.3-.7-20.6-1.4-30.9-.9-12.6-.9-25.2-2.3-37.7-.1-1-.6-2.1-.3-3 3.8-12.1.3-24.5 2.1-36.7 1-7.2 1.3-14.6-.4-21.9-.8-3.3-.6-6.6 0-9.9.5-2.6.9-5.4.4-7.9-3.4-15.8 1.5-31.1 2.4-46.6.3-5.6 2.6-9.6 7.8-12.9 5.8-3.7 10.4-9.2 15.6-14 10.2-9.5 21.4-17.9 28.9-30 .9-1.4 1.9-2.9 3.2-3.8 14.8-10.8 26.3-25.3 41.2-35.9 12.4-8.9 23.4-19.3 33.3-31 3.2-3.8 7.2-7.1 11.4-9.6 9.5-5.6 16.3-14.8 26.5-19.3 3.7-1.7 5.2-5.1 6-8.7 1.4-6.4 5.2-10.6 11.5-12.6 1.6-.5 3.4-1 4.4-2.2 13-14.3 31.6-20.5 46.5-31.8 13.4-10.2 27.5-19.8 39.5-31.8 7.5-7.6 15.7-14.4 23.4-21.7 5.5-5.2 11-5.5 17.3-2.4 11.1 5.4 21.7 11.5 32.1 18.3 8.3 5.4 16.8 10.6 25.1 16.1 3.3 2.2 6.8 3.9 10.2 1.6 8.4-5.6 16.1-1.6 23.8 1.2 4.3 1.6 8.3 4.3 12.1 6.9 4.1 2.8 7.8 6 13.2 6.4 3.4.2 5.9 3 8.4 5.2 5.9 5.2 12.8 8.3 20 11 11.4 4.3 22.6 9.2 33.4 15.2 10.3 5.7 22.1 7 33.6 8.5 6.6.9 13.1 1.6 19 5.2 5.1 3.1 11.3 3.5 17.1 4.9 14.2 3.4 28.2 8 41 15.1 13.8 7.7 28.5 10.8 44.1 10.3 6.2-.2 11.3 2.2 15.4 6.1 5.3 5 11.3 7.8 18.1 9.9 11.6 3.5 13.1 5.9 14 18.6.5 7.2 2.1 8.6 9 11.1 9.6 3.5 20.1 4 28.6 11.1 6.2 5.2 5.9 11.4 5.3 18.1-.6 6.4-4.6 10-10.4 12.1-3.4 1.2-6.6.6-9.8-.4-2.9-.9-5.6-2.2-8.5-2.9-8.6-1.9-12.3.9-13.6 9.6-.7 4.9-1.3 9.8-.5 14.9 4.1 27.8 3.5 55.8 2.4 83.7-.2 5.7.3 11.1 2 16.6 3.6 11.5 2.9 23.7 4.5 35.6 1.2 8.6 3.8 17.4.6 25.7-7.7 20.2-2.6 40 .6 60 1.3 8.6 3 16.9 1.1 25.7-1.6 7.1-1.1 14.7.6 21.9 1.7 7.2 1 14.6 2.1 21.8.3 2.2-.2 4.7-.8 6.9-2 6.3-6.7 8-12.5 4.7-3.8-2.2-6.8-5.4-8.7-9.4-4.1-8.4-9.3-16.1-12.1-25.1-1.8-5.9-4.5-6.6-9.5-2.5-3.1 2.5-5.5 6-10.3 3.7-4.6-2.2-5.5-6.4-5.8-10.8-.7-6.6-1-13.2-1.4-19.9zm-539.9 92.2h4c13.1-.4 14.3-1.7 12.8-14.6-2.3-19.7-2.9-39.6-6.4-59.2-2.4-13.4-4.2-26.9-6.5-40.2-1.2-6.8-4.2-12.6-11.3-15.3-3.4-1.3-5.2-3.7-6.1-7.3-2.6-10.4-7.4-19.9-11.7-29.6-.8-1.7-1.2-4.4-3.8-3.9-2.9.5-2.8 3.3-3.1 5.6-.2 1.6-.3 3.4 0 5 3.6 18.6-.6 37-.7 55.6 0 8.1.6 15.9 2.5 23.5 1.2 5 1 8.8-2 13-5.1 7.1-7.4 15.6-10.3 23.7-2.3 6.4-.6 12.7 1.4 18.5 1.9 5.4 7.8 3.7 12.2 4.7 7.7 1.8 9.6 3.9 10.1 10.2.6 7.9 2.1 9.6 9.9 10.3 3 .3 6 .1 9 0zm512.5-356c5 .4 8 .5 10.9 1 3.1.5 6-.2 8.9-.6 2.5-.4 4.1-1.5 4.2-4.5.4-9.5-7.8-20.5-16.8-23.1-16.6-4.7-33.4-8.5-50.3-12.1-7.2-1.5-14.3-3.2-21.7-2.9-4 .2-8.1 0-11.7-2-6.2-3.4-13-1.7-19.5-3.2-4.3-1-6.4 3.2-4.3 7.3 1 1.8 2.4 3.3 4.3 3.9 5.1 1.6 9.9 3.8 14 7.4 1.6 1.4 3.5 1.8 5.6 1.3 8-1.6 14 2.4 19.9 6.9 9.1 6.9 17.6 15.5 30.4 15.1.6 0 1.4.1 1.9.5 8.2 5.3 17.1 5.6 24.2 5zm-527.9 31c-.3-5-.2-10-1.1-14.9-1.1-5.7-4.4-7.1-9.5-4.3-6.2 3.3-11.7 7.9-16.1 13.2-12.6 15.1-27.4 27.9-41.8 41.1-11.7 10.6-12.3 29.3-1 40.1 4 3.8 6.2 3.8 9.4-.8 1.7-2.5 3.8-4.6 5.9-6.7 3.3-3.3 5.3-7 7-11.6 2.1-5.7 1.4-12 4.6-17.2 3.3-5.3 4.9-10.9 3.5-17.1-.7-3.2.6-5.9 2.1-8.5 2.8-4.9 7.7-5.4 11.2-1 1.6 2 2.9 4.5 3.7 7 1.4 4.4 2.3 9 3.5 13.5.9 3.5 2.5 6.3 6.5 6.5 3.7.2 4.9-2.7 6.3-5.4 5.7-10.7 6.4-22.2 5.8-33.9zm584.9 248.5c5.2-10.2 4.1-20.5 2.3-31.1-1.3-8.2-2.5-16.4-2.9-24.7-.7-14.3-1.9-28.4-4.9-42.4-1.7-7.8-2.8-15.7-2.7-23.7.1-11.4-4.3-22.1-4.4-33.5 0-2-1.4-4-3.8-3.9-2.5.1-3.1 2.3-3.3 4.3-1 12.9-1.3 26 .5 38.7 1.5 11.2 3 22.3 2.4 33.6-.1 3-.5 5.9.9 8.8 3.7 8.1 3.8 16.7 4.2 25.4.6 12.9.2 25.9 3.9 38.5 1.4 4.6 2.7 8.9 7.8 10zm-510-316.8c-10.4 5.2-19.3 9.5-27.9 14.1-4.6 2.4-9.1 3.6-14.3 3-9.5-1-14.1 3.2-14.2 12.9-.1 9.6 1.4 19.2-.7 28.7-.5 2.4.4 5.3 1.1 7.8 1.3 4.9 2.8 5.5 6.8 2.6 1.8-1.3 3.6-3 4.9-4.9 6.6-9.5 14.1-18.5 19.5-28.8 2.2-4.2 5.3-7.3 8.9-10.5 7.2-6.1 13.2-13.4 15.9-24.9zM628 403.3c-.1-16.1-2-31.6.5-47 .7-4.1-2.8-5.9-6.6-5.4-4.4.5-6.3 3.1-6.1 7.5.7 12.6 3.3 25 5.6 37.3.6 3.1 2 6.3 6.6 7.6zm269.4-352c.1 2.3-.2 4.7.4 6.8 1 3.2 3.5 4.8 6.9 3.4 3.1-1.3 7.5-10 6.9-13.4-.7-4-4.4-7.6-8-7.3-4.7.3-5.6 3.8-6.2 7.6-.1 1 0 2 0 2.9zM666.7 359.8c.2 2.7 3.1 12.2 4 13.4 1.1 1.4 2.5 2.3 4.2 2.2 2.5-.2 2.8-2.3 3.2-4.2.9-4.4-.3-8.4-1.5-12.5-1.2-4-2.5-8.1-7.6-7.2-5.9 1-2.8 5.2-2.3 8.3zM953.6 75.3c.2-.8.4-1.5.7-2.3-4.9-3.3-9.6-6.8-14.6-9.7-4.4-2.5-7-1.2-8.4 3-1.4 4.1 0 7.1 4.8 7.8 5.8.9 11.7.8 17.5 1.2zM600.7 384.7c.3-5.9-2.7-11.5-2.1-17.5.1-.6-1.1-1.8-1.9-1.9-.7-.1-1.9.7-2.3 1.4-1.5 3-2.2 6.2-1.3 9.6.9 3.2 1.3 6.4 1.1 9.8-.1 2.8-.5 7 3.6 6.8 4-.2 3.4-4.1 2.9-7.1.1-.5.1-.8 0-1.1zm217.4-262.8c-1.4-.1-2.5.3-2.1 1.5.2.7 1.4 1.2 2.3 1.5 1 .3 2.2-.1 1.7-1.4-.2-.8-1.4-1.2-1.9-1.6zm444.5 376.2c.1-.8-.6-2-1.5-2.1-1.1-.1-1.9.4-1.7 1.6.1 1 .9 1.7 1.9 1.6.5 0 .9-.7 1.3-1.1z"/><path d="M1118 270.9c2 14.4 1 30.5 4.3 46.2 1.5 7 3.9 12.3 11.1 15.2 6.9 2.8 10.5 12.4 8 20.4-1.7 5.5-2.3 11.1-2.6 16.7-.3 8-2.3 15.6-4.5 23.4-3.7 13.4-6 27.1-1.5 41.2 4.2 13.3 4.7 27.3 5.4 41.2.9 16.3 4.8 32.2 5.9 48.5.9 12.5-2.5 22.4-11.4 31.5-7.8 8-16.1 15.9-22.1 25.6-2.7 4.4-7.3 6.8-11.2 9.8-7.4 5.7-12.6 12.4-13.9 22.1-1.1 8.1-5.1 11.8-13.2 12.3-7.4.5-12.2 3.8-16.4 9.6-4.7 6.4-8.7 13.5-15.4 18.2-.8.5-1.5 1.5-1.8 2.4-7.5 20.2-23.2 35.5-33.4 54.1-5.2 9.5-11.2 11-20.7 5.7-7.3-4-14.7-7.7-22.4-10.9-18.1-7.6-36.5-14-55.4-19.2-18.5-5.1-36.8-11.3-54.1-19.8-3.8-1.9-6.8-5.3-10.2-8-13.5-10.3-28.2-18.8-43.6-26-1.2-.6-2.8-.8-3.5-1.8-6.8-9.1-17-15-23.4-24.3-4.1-6.1-6.6-12.8-6.7-20.5-.2-12.3-1.3-24.6-2.5-36.8-.5-4.8 1.6-9 1.3-13.8-.6-8.9 1.3-17.8-1.9-26.6-.9-2.4-.6-5.4-.1-7.9 2.6-15.3-.9-30.5-.6-45.7.3-18.2-2.4-36.2-3.8-54.3-.7-9.3-4.3-18-5.2-27.4-.6-6.2-2.3-12.4-3-18.7-.7-6.3-3-12.4-7.3-17.2-3-3.4-4.9-7.4-5.3-11.6-.7-6.3-.9-12.6-2.7-18.7-.9-3-.4-6.2 2.9-7.8 3.3-1.6 5.7.5 7.9 2.7 5.3 5.3 8.3 12.1 10.4 19.1 3.9 13.7 7.3 27.6 11.1 41.3 1.8 6.7 4 13.4 6 20 .7 2.3 1.5 4.6 4.4 4.7 2.6.1 4.1-1.5 5.6-3.6 5.5-7.8 6.6-8.1 15.2-5.2 6 2 7.5 1.1 8.5-5.4.6-3.9 1.4-8 1.1-11.9-.6-9.8.9-19.2 3.2-28.6 2.6-10.1.5-12.9-10.1-12.6-9 .2-17.8.5-26.6-2.2-7.8-2.3-12.4-7.5-14.7-14.9-2.6-8.3.8-13.3 9.4-13 10.6.3 21.2 1.1 31.8 2.2 14.2 1.5 28.6.8 42.5 4.6 2.4.6 4.5-.3 6.8-.9 9.4-2.7 16-.1 19.5 8.7 5.1 13 9.5 26.2 9.2 40.6-.2 9.7 2.1 18.5 10.4 24.7 5.7 4.2 8.2 10.3 9.3 17.1 1.3 8.2 2.5 16.5 4.2 24.6 3.5 16.5 8.2 32.9 13.7 48.9 2.3 6.9 4.3 13.9 6.5 20.8 4.9 15.3 12.7 29.2 20 43.3 3.9 7.5 12.4 11.8 19.3 16.9 2.4 1.8 5.1 3.2 7.1 5.5 6.9 8 16.3 11.3 26.1 13.7 9 2.3 13.3-.1 15.3-9.3 3-13.7 5.1-27.6 3.1-41.6-2.6-18.5-2.4-37-3-55.6-1-29.5-.1-59-4.2-88.4-2.6-18.6-3.9-37.5-5.5-56.3-1-11-.8-22.5 0-33.8.5-7.2-.1-14.5 1.3-21.7 2.8-14.6 8.5-18.5 23.2-15.2 2.9.7 5.7 1.8 8.6 2.5 14.2 3.9 18.9 2.3 26.8-10 2.5-3.9 5-6.8 9.8-7.4 4.1-.5 7.2.4 9.2 4.2 1.1 2.1 2.3 4.1 3.4 6.1 2.6 4.6 6.5 7 11.6 5.8 15.9-3.9 22.8 6.1 23.9 22.3.5 2.8-.1 5.8-.4 10.2zM1042.8 458c8.7.9 17 1.9 22.2 10.5 1.8 3.1 4.8 1.5 6-2.4 3.5-11.2 2.1-22.3-1-33.2-5.4-19.2-7.2-39-10.3-58.5-2.1-13.7-4.6-27.4-5.5-41.3-.4-5.6-.1-11.3-2.9-16.5-5-9.5-3.1-18.7 1.4-27.7 1.6-3.3 3.6-6.5 4.6-9.9 1.7-5.3.1-8.4-5-10.1-7.3-2.4-14.5-4.4-22.5-3.1-4.5.7-7.9 2.6-9 6.7-2 7.3-4.4 14.7-3.9 22.4 1.9 28.8 7.5 57.4 7.1 86.4-.1 5.2-.4 10.6.3 15.9 3 21.4 3 43 4.6 64.6.6 8.9 2.2 17.9.6 26.8-2 10.9-1.1 21.9-1.8 32.9-.5 8.2.1 16.6-.7 24.9-.1 1.7.6 3.4 2.4 4 2 .6 3.2-.8 3.8-2.4 6.5-15.8 17.4-30 17.4-48.3 0-3.9-.2-7-2.6-10.1-3.2-4.1-6.5-8.1-3.1-14.3 2.8-5.1-6.6-8.6-3.6-14.5.6-1.2 1.1-2 1.5-2.8zM926.2 598c.1.7.2 1.7.5 2.7 4.6 14.5 7.1 29.5 9.2 44.6.8 5.9 2 11.8 3.5 17.6 2 7.9 6.5 13.3 15.3 15.1 8.7 1.8 17.2 4.6 25.4 8.7 9.9 5 12.6 4.1 19.1-4.8 1.8-2.4 3.3-5 4.6-7.7 1.8-3.6 3.2-7.3 4.8-10.9 2.3-5.3 6.9-8.9 10.3-13.3 3.7-4.7 2.9-7.3-2.2-10.4-6.8-4.1-14.2-3.4-21.3-2.1-9.4 1.6-16.4-1.7-21.1-9.5-4.1-6.9-9.3-12.9-13.8-19.5-6.4-9.3-16.5-13.1-26.5-16.5-5.4-1.8-7.9.6-7.8 6zm157.5-317.8c1.9 16 4.4 31.4 4.8 47 .1 3.6 1.5 7.1 2.5 10.6.4 1.7 1.4 3.1 3.4 3.1 1.5 0 2.5-1.1 2.8-2.4 1.5-5.8 3.9-11.5 4.2-17.3.7-14.6-3.3-29-3.6-43.6 0-1-.5-1.9-.9-2.8-1.2-2.4-2.5-5-5.6-4.9-3.3 0-5.6 2.1-6.6 5.2-.6 1.7-.7 3.7-1 5.1zm2 283.9c-.3-3.3-1.7-7-5.6-9.1-2.7-1.4-6.3-2.6-8.3.2-4.9 6.6-11.2 12.5-13.1 20.9-1.3 5.6 2.8 9.9 8.4 9.6 8.2-.5 18.9-12.3 18.6-21.6zm-258.1 20.1c-2.6 9.8-3.9 18.2-5 26.7-.5 4.2.8 7.2 3.9 9.5 2.9 2.2 5.9 4.3 8.9 6.3 1.4 1 3 1.4 4.6.2 1.2-1 .9-2.4.6-3.7-2.7-12.8-4.2-26.1-13-39zm54-121c7.3-9.6 8.1-19.4 2.8-26.4-1-1.3-2.2-2.6-4-2.4-2 .2-2.6 1.9-3 3.5-2.5 8.7-.9 16.7 4.2 25.3zm237.7 50.6c0-3.7.1-7 0-10.2 0-1.3-.8-2.7-2.3-2.6-1.7.1-2 1.6-1.8 3 .7 4.1-.4 7.7-1.9 11.5-2.2 5.4-1.1 11 .7 16.4.5 1.6 1.2 3.2 3.3 3 1.8-.2 3-1.5 3.5-3.1.4-1.2.8-2.9.2-3.8-2.5-4.7-.7-9.8-1.7-14.2zm-222-12.5c2.8.2 4.5-1.3 4.5-4 0-5.1-2.7-9.4-4.5-13.9-.5-1.3-2.1-1.5-3.4-.9-2.9 1.1-5.8 7.1-5.3 10.9.5 4.3 4.4 7.8 8.7 7.9zm-44.8-173.6c-.3-3.7-.4-7.2-4.4-8.3-2.7-.7-6.1-2.4-8.3.2-2.3 2.7.7 5.5 1.6 8.1.5 1.6 1.1 3.1 1.8 4.6.8 1.8 1.4 4 3.8 4.1 2.7.1 3.9-2.1 4.7-4.3.5-1.5.6-3.2.8-4.4zm30.2 247.7c-.1 7.3-2.2 14.1-2.9 21.2-.1 1.3-.1 2.6.2 3.9.3 1.3 1.4 2.3 2.8 2.5 1.5.2 2.5-.7 2.8-2.1 2.3-8.8 2.9-17.4-2.9-25.5zm-81.5-37.2h.8v8.8c0 1.6 0 3.7 2.1 3.9 2.4.2 3.3-1.8 3.6-3.8 1.1-7-1.9-13.6-2.4-20.4-.1-.9-1.2-1.7-2.2-1.3-.8.4-1.7 1.3-1.7 2.1-.3 3.5-.2 7.1-.2 10.7zm93.7 94.1c2.5-.7 2.9-2.5 2.8-4.6-.1-2.5-1.1-4.6-4-4.6-2.2 0-4.1 1.1-3.5 3.5.6 2.6 1.8 5.1 4.7 5.7zm-91.2-135.2c-1.6 5.4-2.4 9.2.6 13.7 2.8-6.6 2.8-6.6-.6-13.7zm72.4 47.9c1.5.2 2.2-.5 2.3-1.5.1-.5-.4-1.4-.8-1.6-1-.5-2-.1-2.3 1-.4 1 0 1.8.8 2.1zm5.7 21.4c-.2.5-.5 1-.7 1.5 0 0 .5.3.8.4.2-.5.5-1 .7-1.5 0 0-.5-.3-.8-.4zM1758 923.2c1.3 9.3-1.7 22.6-4.7 35.3-2.8 12.1-5.6 24.4-11.9 35.8-6.1 11-10.4 22.9-17 33.8-4.4 7.2-9.8 13.4-15.2 19.6-7.2 8.3-10.4 19.4-19.5 26.2-2.1 1.5-3.8 3.6-6.2 4.9-24.5 13.4-51 18.8-78.6 20-13.1.5-23.2-6.2-31.8-14.6-12.5-12.3-25.8-23.8-36.4-38.1-5.5-7.3-13.1-13.1-20.3-19-8.1-6.7-15.6-13.5-19.5-23.5-.5-1.2-1.2-2.4-2-3.4-13.9-18.7-12.5-39.1-6.4-59.8 3.2-11 .3-15.2-11-14.2-5.4.5-10.6.6-15.5-2.4-1.1-.7-2.5-.9-3.8-1-17.5-1.5-27.6-13.2-33.6-27.6-7.1-17.2-15-34-23.2-50.7-4.6-9.5-7.9-19.8-9.2-30.5-.7-5.6-1.5-11.2-3.3-16.6-1.2-3.8-1.6-7.9-.3-11.8 1.8-5.5 2.2-11.3 1.5-16.8-2.1-15.8 4.9-30 7.5-44.9 1-5.8 6.1-10.1 8-15.9 2-5.9 4.4-11.8 6.3-17.8 3.3-10.4 12-17.4 17.8-26.2 2.7-4.1 6.1-7.7 7.9-12.4 1.6-4.2 4.1-7.5 7.6-10.3 1.8-1.4 3.7-3.1 4.6-5.2 2.4-5.6 6.5-9.1 11.9-11.5 2.8-1.3 4.7-3.7 6.4-6.2 3.9-5.8 3.3-11.1-2.8-14.4-5-2.8-9.1-6.7-14.2-9.2-3.9-2-7-5-10.1-8.1-4.2-4.2-5.2-9.2-3.1-14.7 2.4-6.3 5.3-12 11.4-15.9 7.2-4.6 13.3-11 22.4-12.4 4.4-.7 7.4-4.3 10.5-7.3 4.5-4.5 9.3-8.6 14.9-11.6 7.4-4 14.2-8.8 19.3-15.6 3.2-4.3 7.1-4 11.6-2.4 10.5 3.8 18 11.5 24.5 19.8 7.8 9.9 17.6 17.2 27.7 24 12.5 8.3 12.9 12.6.6 20.8-5.3 3.5-10.8 6.8-14.8 11.8-4.1 5.1-3.4 7.4 2.6 10.4 4.5 2.2 8.8 4.9 13.5 6.5 13.2 4.4 23.6 12.1 30.4 24.3 3.3 5.9 7.6 10.9 12.3 15.6 12.2 12.4 18 27.8 21.3 44.3 1 5.1 3.9 9.2 5.4 13.9 3.1 9.5 5.4 19.2 7.2 29.1.3 1.6 1 3.5.4 4.9-3.8 9.8-3.6 20.1-4.4 30.4-.5 5.9-3.3 11.5-6.1 16.8-1.8 3.5-3.6 7.1-5 10.9-3.9 10.5-3.6 10.9 7.5 9.8 2-.2 4.1-.3 5.8.8 10.4 6.4 23.2 8.4 31.9 18 3.3 3.6 7.7 6.4 11.8 9.2 7 4.9 12.4 11.1 15.8 18.9 2.3 5.3 6.5 8.8 10.4 12.9 7.7 8.1 18 14 21.8 25.4.2.6.4 1.4.9 1.8 10.8 8.3 8.4 20.4 8.5 36.1zm-298.4-154.6c-2 7.2 1.6 13.9 2.7 20.6 1.9 11.6 0 24.3 8 34.5.4.5.6 1.3.5 1.9-1.4 9.9 4.5 17.8 7.4 26.5 3.4 10 10.6 17.6 19.1 23.7 5.3 3.9 8.3 3.7 13.4-.4 5.7-4.5 8.7-10.7 11.2-17.4 5.4-14.8 12.8-28.4 23.1-40.4 8.2-9.6 16.7-10.3 26-2 2.2 2 4.6 3.7 6.5 6.1 3.5 4.6 6.3 4.9 10.2.4 4.8-5.5 9.1-11.4 12.2-18.1 5.5-12.1 9-24.9 14.8-37 4.6-9.5 8.3-20.9 6.6-31.9-3.4-23.5-9.2-46.5-28.3-63-10-8.6-20.6-16.2-34.4-18.4-7.7-1.2-15.3-3-22.9-5.7-15.8-5.7-30.9-3.9-40.9 14-2.9 5.3-6.3 10.1-10.4 14.5-2 2.2-4.5 4.4-5.5 7-4.9 13.7-10.4 27.4-13.8 41.6-3.3 14.4-2 29.3-5.5 43.5zm56.3 186.6c-1.7 9.4 2.1 17.7 5.8 25.9 2.6 5.8 6.4 6.1 11 1.7 3.5-3.4 5.3-7.8 5.5-12.5.4-10 5.6-16.7 13.4-22.1 7.4-5.2 14.7-2.1 15.8 6.9.3 2.2-.3 4.6-.6 6.9-1.8 11.2-3.7 22.3-4.6 33.6-.4 4.8.9 8.8 3.1 13.2 5.6 11.2 14.3 20 21.3 30 7.6 10.8 18 13.2 29.9 10.3 15.8-3.8 30.4-10.1 39.7-24.5.9-1.4 2-2.7 3.3-3.7 11.8-8.6 17.7-21.2 24.5-33.5 5.3-9.7 8.4-20.4 13.8-29.8 10.4-17.8 12.9-36.1 7.2-55.6-1.6-5.3-1.9-11.3-6.8-15.2-14.3-11.1-29.8-19.8-47.9-23-4.3-.8-8.7 1.1-12.8-.9-6.1-3.1-13-2.6-19.5-3.8-8.5-1.5-14.8 1.3-19.1 9-4.3 7.8-9 15.5-16.3 21-.8.6-1.3 1.5-1.9 2.3-8.5 12.7-17 25-29.9 34.3-7.9 5.7-15.9 9.3-24.9 11-8.2 1.5-9.6 2.4-10 10.5-.1 2.7 0 5.3 0 8zm23.4-405c0-3.4-1.1-7.4-5.2-9-3.8-1.5-5.9 1.8-8.1 4.3-3.5 4-5.9 8.1-3 13.5.6 1.1.9 2.7.5 3.8-2.4 6.9-4.8 13.7-11.6 18-6.7 4.3-13.1 6.3-20.4 1.8-1.6-1-3.8-1.2-5.7-1.6-7.7-1.8-8-2.2-8.7-10.7-.6-7-3.8-8.9-9.7-5.6-1.7 1-3.4 2.1-4.9 3.4-5.1 4.4-5.2 7.7.7 10.7 11.3 5.8 21.7 12.9 31.5 20.9 4.1 3.4 8.7 4.2 14.8 3 8.6-1.6 15.4-5.5 22.3-10.1 5.1-3.4 8-7.7 9.2-13.5.8-3.7 1.1-6.3-3.7-7.3-4.5-1-4.6-4.3-2.4-7.6 2.6-4.1 3.8-8.5 4.4-14zm-101.4 172.5c-2.7 11.7-8.2 20.4-11.3 30.1-.2.6-.4 1.3-.3 2 .7 7.8-1.7 15.1-3 22.7-.6 3.6-.9 7.3-.4 10.9 1 7.9 2 15.8 3 23.8.6 5 1.6 9.9 4.9 13.9 4.3 5.1 8.4 10.3 11 16.6.6 1.6 1.7 3.1 3.6 2.9 2.5-.2 2.8-2.6 3.2-4.5.2-1.2 0-2.6-.3-3.9-2.9-12.3-5.5-24.6-8.8-36.8-3.5-13.1-3.7-26.1.9-38.9 1.1-2.9 1.6-5.8 1.2-8.8-.7-6.9-2.7-13.7.4-20.6.9-2.2-.6-5.2-4.1-9.4zm247.5 304.8c3.4-.9 5.7-3.7 8.1-6.4 9.2-10.6 15.2-23.2 20.8-35.9 1.4-3.2 4-7.5-1-9.3-4.3-1.6-4.6 3.6-6.3 6.1-8.6 12.5-10.8 28.5-22 39.6-.9.9-1.2 2.4-1.5 3.6-.2 1 .5 1.8 1.9 2.3zM1653 826.8c-.7-2.3-2.1-4.1-4.8-3.8-2.1.3-3.4 1.9-3.3 4 .1 2.5 2.2 2.9 4.2 2.9 1.9.1 3.8-.4 3.9-3.1zm-210.6-111.2c1.7-2.6 4-5 2-8.6-.2-.3-1.4-.5-1.7-.2-3.2 2.3-3.1 5.4-1.5 8.6.1.2.6.1 1.2.2zm113.3 178.5c5.1-1.5 7.7-3.4 8-8.1-3.9 1.4-6.4 3.2-8 8.1zM1458 682.6c1.2 0 1.7-.8 2-1.8.4-1.1.1-2.2-.9-2.5-1.7-.6-2.4.6-2.5 2.1-.1 1 .3 1.9 1.4 2.2zM347.8 2062.7c6.4 0 11.3-1 16.3-.3 9.2 1.2 12.2 6.8 6.3 14-6.7 8.3-14.2 15.9-24.9 19.2-1.6.5-3.5.6-4.7 1.6-12.6 10.4-24.4 3.1-35.1-2.8-7.5-4.1-8.8-13.3-7.6-21.5 1.4-10.1 2.6-20.3 4-30.4 1.8-13 3.9-26.3 1.7-39.7-.3-2-.7-4-.4-5.9 1.9-13.2 1.4-26.7.3-39.8-.9-11.9 2.5-23.1 1.5-34.9-.9-11.5.8-23.2.9-34.8.1-9.3.6-18.7-.7-27.8-3.7-25.9-.5-51.9-1.5-77.8-.3-7 .7-14-1.1-20.9-.5-1.8-.6-4.2.1-5.9 4-9.6.5-19.8 2.3-29.6.4-2.4-.7-4.5-1.8-6.6-1.8-3.3-2.6-6.8-2.2-10.6 2.2-22.4 1.1-44.9 2.4-67.4 1.4-23.2.5-46.4 0-69.7-.1-2.4-.4-4.6-1.3-6.8-.7-1.5-1.8-3.3-1.5-4.7 2.5-12.4-.5-24.9.4-37.3.5-6.6 2.3-13.1 1.1-19.8-.2-1.3-.3-2.7-.1-4 2.8-17.9-2.1-35.6-.8-53.5.2-2.9-.3-6.1.5-8.9 4.5-16.9 4.1-34 2.4-51.2-.2-2-.3-4-.1-6 2.5-18.7.4-37.1-3.1-55.4-1.4-7.5.7-14.6.7-21.8 0-10-2.2-19.8-2.6-29.7-.4-9.6-1.6-19.2.2-28.8.2-1.3.7-2.7.5-3.9-2.6-11.8.9-23.8-1.4-35.7-.7-3.9-.9-8-.3-11.9 2.1-14.9.1-29.8.3-44.8.2-9.9-.7-19.9-1.7-29.9-1-9.8.8-19.9.4-29.9-.9-25.3-3.1-50.4-6-75.5-1.8-15.5-1.7-31.4-4.9-46.6-6.3-30.2-3-61.1-8.8-91.2-2.7-14.4-2.8-29.1-6.4-43.4-2.8-11.1-1.4-22.5-2.6-33.8-1.3-11.9-2.7-23.8-4.9-35.6-2.9-15.8-2.9-31.8-4.8-47.7-1-8.5-.9-17.3-2.6-25.6-3.6-17.6-3.5-35.6-5.6-53.4-1.8-15.8-.9-32-3.1-47.6-3.2-23.3-.5-46.5-2.7-69.7-.8-8 1.5-16.3 2.4-24.5.3-3.3.8-6.7.6-10-.8-10.8.4-21.2 3.6-31.6 2.4-7.7 2.1-15.8 2.5-23.8.7-13.6 1.8-26.9 6.8-40 3.1-8.1 5.5-16.2 10.4-23.4 6.7-9.9 18.8-15.4 30.4-12.1 7.3 2.1 13.6 2.3 19.5-3 2.3-2.1 5.6-2.3 8.5-2.5 11.8-.8 22.7-4.5 32.9-10.4 7.7-4.5 16.8-3.5 25-6.4 5.3-1.9 11.1-2.2 16.2-5 2.5-1.4 5.2-1.5 7.8-.7 10 3.1 19.1-.1 28-4 7.8-3.4 15.6-5.6 24.2-5.2 3 .2 6.4.1 7.6 3.5 1.4 3.9 1.9 8.2-1.5 11.2-4 3.4-8 7.6-13.6 8-11.5.8-22 5.5-32.7 8.8-11.3 3.5-22.8 4.6-34.2 6.4-5.9.9-11.6 2.7-17.5 3.6-10.9 1.8-21.5 4.6-31.7 8.3-14.2 5.2-29.1 6.7-43.5 10.6-12.8 3.5-19.4 12.8-19.6 24.7-.4 19.8-4.3 39-6.3 58.5-.3 3.3-.5 6.7-.2 10 .7 7-.7 13.8-.9 20.6-.4 13-3.1 25.8-2.6 38.7.3 8-.3 15.9-.1 23.9.5 20 4.5 39.6 5.9 59.5 1.3 18.1 3.5 36.3 4.4 54.5 1.3 25.3 6.2 50.1 7.1 75.4.7 18.5 3 37.1 4.5 55.6 2.4 28.6 9.5 56.4 12.1 84.9 1.9 20.9 3.3 41.8 5.3 62.6 1.4 15.2 3.8 30.4 4.8 45.7 1.2 16.6 1.4 33.2 2 49.8.1 1.7-.6 3.5-.1 5 4.7 15.9 3.6 32.4 3.7 48.6.1 13.6-1.2 27.3-.4 40.9 1.1 19.2 2.2 38.3 3.3 57.5.1 2.3.2 4.7-.2 7-1.9 11-1.4 21.9.9 32.7 2.5 11.5-.4 23.2 1.5 34.8 1 6.2.6 12.6 1.4 18.9.8 5.7 1.1 11.2-.2 16.9-1.1 4.6 0 9.3.2 13.9 1 19.6 2.5 39.2 1.6 58.8-.3 5.7 0 11.3.4 17 .4 6 .8 12 .3 18-2.2 24.5-2.9 49-2.4 73.6.2 10.6-.3 21.3-1.8 31.8-1.1 7.4-1.3 14.8-.4 21.9 2.3 18 0 36 1.6 53.8 1.6 18.9-1 37.8.6 56.7.3 4 1.2 7.9 1.8 11.8 1.3 8.6 2.4 17-.7 25.6-2.2 6-2.2 12.6-1.4 18.8 2.3 16.9 1.4 33.7 1.6 50.7.2 15.2-.9 30.6 1.3 45.8 1.1 7.6-.5 15.2-.6 22.8-.2 14.7 4.1 29 2.5 43.7-.7 6.9-2.1 13.9-1.4 20.7 1.5 15.3 0 30.6-.5 45.8-.5 15.3.5 30.5-.7 45.8-.7 8.5 1.8 17 2.3 25.6.5 7.7.2 15.2 0 22.7l-.9 27.9c-.2 4.8 1.5 7.6 6.9 7.4 5.4-.2 10.7 1.3 14.7.6zM903.6 811.1c1.1-12.7-1.5-25.2-2.3-37.8-.5-8.1 1.1-15.5 4.3-22.2 3-6.2 7.4-11.7 10.3-18.1 1.5-3.3 4.4-3.6 7.6-2.3 12.3 5 16.7 11.2 15.8 24.6-.8 11.4-1.1 22.6 3.4 33.4 1.1 2.7.4 5.3-.6 7.8-1.6 3.8-2.1 7.7-2.2 11.7-.4 13.1 2.3 16.2 15.2 16.4 5 .1 10 0 15 .2 3 .1 6 .2 8.9.9 12.1 2.7 23.3.4 33-6.9 4.5-3.4 7-2.1 10 1.2 6.4 7 8.5 20.9 4.2 29.7-2.4 4.9-2.6 11.1-8.9 13.8-2.8 1.2-5.3 2.8-8.4 2.9-13.3.4-26.2 4.1-39.7 3.1-7.1-.5-13.9 3.6-21.6 2.3-4.1-.7-8.4 6.5-8.3 12 .2 19.5.4 39.1.9 58.6.2 5.9-.9 11.3-4.3 16.1-2.8 3.9-6.6 3.7-8.5-.5-1.4-3.3-2-7-2.6-10.6-.8-4.8-2.2-8.7-7.4-10.8-7.3-3-8-10.3-8.9-16.8-1.3-9.5-1.9-19.2-2.3-28.8-.6-12.8-8.9-19.4-20.4-14.4-7.4 3.3-16.8 2.9-21.9 10.7-.3.5-1.2.9-1.7.9-12.6-.8-24.6 5.7-37.5 3-4.2-.9-7.3-2.3-9.4-6.4-2-3.9-4.8-7.4-10-6.9-5.9.5-8.3-3.1-9.8-8-3.2-10.3 1.3-19.6 4.1-29 .6-1.9 2.8-2.7 4.7-3.4 10.2-3.8 20.2-7.3 29.4-14.1 7.5-5.6 17.9-4.3 26.7-.2 3 1.4 5.9 3.1 9.3 3.4 6 .6 11.6 1.2 15.7 7 1.9 2.6 6.1 3.8 10.1 1.9 4.1-2 7.7-4.3 7.8-9.4.4-5 .3-10 .3-15z"/><path d="M230.1 1532.9c-6.8-.5-15.3-1-23.9-2.6-12.5-2.3-25.3-.8-37.4 2.7-15.2 4.3-29.7 0-39.2-13.1-3.1-4.3-7.6-7.4-12.1-8.3-12.2-2.3-19.3-11.1-27.2-19-1.2-1.2-2-2.8-3.4-3.7-14.1-8.6-18.2-23.5-24.4-37.2-2.6-5.9-2.4-11.6 0-17.4 2.4-6 3.1-12.1 2.8-18.5-.2-4.5-2.2-6.5-6.4-7.4-6.6-1.4-13.2-1.9-19.8-1.1-4.8.6-9.7.8-12.2-4.2-2.8-5.5-4.2-11.5-1.4-17.3 2.1-4.4 6.6-5.4 11-5.6 6-.3 12-.7 18-.6 4.3.1 6.8-1.5 8.5-5.4 2-4.9 4.4-9.4 5.5-14.8 4.1-21.2 25.5-36.8 47.1-36 17.1.6 27.9 11 38.4 22.3 1.6 1.7 2.2 4.1 2.5 6.4.7 5.6-3.5 9-8.7 6.6-3.6-1.6-6.9-3.9-9.9-6.7-7.9-7.4-17.5-9.1-27.8-7.3-9.5 1.6-13.1 9.7-16.9 17-2.1 4-2.4 8.9-3.5 13.5-1 3.9.5 6.4 4.4 7.6 5.2 1.6 10.6 2.8 15.8 1.6 6.7-1.6 13.2-.3 19.8-.1 2.4.1 4.9.2 6.6 1.8 6 5.5 13.7 6.6 21 8 7.8 1.5 12.9 8.1 20.4 10.1 2 .5 2.3 3.2 1.8 5.2-.7 3-3.1 5-5.7 4.7-6.2-.7-12.5 1.1-18.7-1.3-7.8-3-15.8-4.9-24.2-1.8-2.9 1.1-5.8-.1-8.7-.7-7.1-1.6-14.4-2.8-21.6-3.4-4.5-.4-7.3 2.5-8.5 6.8-1.3 4.5-.1 7.9 4.5 9.6 4.7 1.7 9.3 3.7 14 5.2 11.1 3.6 21.1 8.8 30.7 15.8 7.5 5.5 13.7 12.3 21.3 17.6 5.5 3.8 7.2 10.9 11.4 16.1 4.3 5.5 8 11.5 11.6 17.5 3.5 5.9 8.3 8.2 15.1 6.8 15.4-3.1 31-3.6 46.7-3.6 5 0 10 .3 15-.6 4.4-.8 8.6.5 12.5 2.6 6.2 3.2 8 9 4.1 15-5.4 8.2-11.9 14.9-22.6 16.3-8.6.8-16.5.9-26.3.9zM96 1463.7c1.1 7.7 7 13.6 13.9 17.2 8.2 4.2 16.3 8.8 24.7 12.6 5 2.3 10.2 5 16 4.7 2.1-.1 4.1-.7 4.9-2.7.7-1.8-1.1-2.9-2.1-4.2-4.3-6.3-10.1-11.3-14.7-17.1-4.3-5.5-9.3-9.4-15.2-12.3-5.1-2.4-10.2-4.4-14.3-8.6-3.6-3.6-6.9-2.8-10.1 1.1-1.9 2.4-2.8 5.1-3.1 9.3zm636.3 143.5c-2.7 8.6-2.3 17.9-1.3 27.2.7 6 1.6 11.8 4.3 17.3 3.5 7.3 4.6 15.3 4.6 23.4-.1 14.7 1 29.2 6.4 43.1 3 7.7 2.7 16.2 5.2 24.2 2.4 7.5-8.5 16.5-16.1 14.4-1.7-.5-2.9-1.6-3.7-3.1-1.6-2.9-3.7-5.8-4.4-9-2.9-13.2-5.7-26.5-7.8-39.9-.7-4.6-1.4-9.2-2.3-13.7-.3-1.3-1.2-2.5-2.7-2.6-1.6-.2-2.2 1.2-2.5 2.5-.3 1.3-.7 2.6-.7 3.9.4 12.2-5.5 23-8.1 34.5-1.8 7.7-8.6 12.5-15.3 16.3-3.5 2.1-7.9-.8-9.8-5.9-1.4-3.8-2.8-7.6-5.2-10.8-3.2-4.3-6.6-4.1-9.1.7-2.3 4.5-4.5 8.9-8.8 11.9-5.2 3.7-9.2 2.7-10-3.6-1.1-9.2-2.3-18.7-1.3-27.8 2-18.6 1.9-37.2 2.9-55.7.6-10.9 1.2-21.9 1.9-32.8.2-2.3.9-4.6 1.9-6.7 2.1-4.7 7.9-8 12-7.1 4.6 1 8.5 5.5 8.8 10.9.2 2.3-.3 4.6-.6 6.9-.5 4.5.1 8.4 4.2 11.5 5.4 4.1 6.7 10.1 4.9 16.2-3.8 13.4.4 26.4 1.6 39.5.2 1.9 1.2 3.8 2.2 5.5 1.3 2 3 3.8 5.7 3.3 2.6-.4 3.8-2.5 4.3-4.9 2.1-10.8 4.5-21.5 6.2-32.3 3.1-20.1 5.9-40.2 8.8-60.3.8-5.9 3.8-10.8 8.2-14.4 5.4-4.5 11.3-2.5 13 4.1 1.2 4.2 1.7 8.5 2.6 13.3zM74 1069.5c-.1-3.7.4-6.7 1.3-9.5 2.9-8.4 5.7-16.7 7.4-25.7 2.8-14.9 18.4-24.5 33.6-17.7 8.8 4 16.5 9.9 24.8 14.5 4.5 2.5 5.7 7.2 7.7 11.3 1.5 3 3.2 6.5 7.4 4.6 3.6-1.6 3.6-5.1 2.8-8.6-1.9-8.4-4.8-16.6-5.7-25.2-.4-3.9-3.1-6.4-6-8.8-16-13.3-24.6-31-30.2-50.5-1.6-5.5-1.8-11.2-.8-16.9 1.7-9.2 8.5-12.9 17-9.2 8.5 3.7 14 11.1 20.2 17.4 2 2 2.1 4.8.8 7.5-1.2 2.5.1 4.5 1.4 6.4 1.2 1.7 2.5 3.2 4.9 2.7 2.3-.6 2.9-2.5 3.1-4.6.4-3.1-.8-5.9-1.7-8.7-3.2-10.5-6.7-20.9-7-32.1 0-1.7-.2-3.5 1.7-4.2 1.4-.5 2.5.5 3.5 1.4 1.5 1.3 4.3 2.4 4.4 3.8.9 11.2 11.4 17.6 13.6 28.1.7 3.2 2.1 6.6 4.3 8.9 4.7 5.1 6.3 11.3 9.1 17.3 4.9 10.5 1.5 19-3.1 28.1-3 5.9-6.8 10.3-12.7 13.2-3.6 1.8-4.2 4.2-2.2 8.1 5.7 11 9 22.8 9.2 35.3.1 3.9 1.3 7.8 2 11.7.9 5-1.4 9.4-3.8 13.1-4.3 6.5-12.8 6-18.8.5-13-11.9-25.1-24.7-39.5-35-9.4-6.7-14-5.6-19 5.1-3.5 7.5-4.3 15.8-7.8 23.3-2.2 4.8-2.8 11.2-8.8 12.2-5.9.9-7.5-5.5-10.7-9.1-2.5-2.9-2.2-6.2-2.4-8.7zm47.8 574.8c-3.5-.6-9.6-.5-14.5-2.8-7.8-3.6-15.8-4.7-24-5.9-9.4-1.3-17.6-5.4-25.5-10.5-2.2-1.4-4.8-2.3-7-3.7-3.7-2.4-6.8-2-9.8 1.1-1.4 1.4-2.9 2.8-4.5 3.9-4.3 2.9-8.6 2.5-12.7-.9-6.9-5.8-9-13.7-9.9-22.1-.4-3.6-.6-7-3.4-10.1-5.8-6.3-5.8-12.9 1.3-17.6 6.7-4.4 10.9-10.5 15.7-16.2 6.7-8 17.2-9.9 24.5-16.7.6-.5 2-.7 2.9-.4 7.9 2.8 16.4-.3 24.5 2.6 5.8 2.1 12.4 2.3 18.7.6 3.7-1 7.3-.3 10.8.7 1 .3 1.9.8 2.8.9 20.8 1.6 31.3 16.7 41.7 31.9 2.6 3.8 5 7.8 7.3 11.8 5 8.6 6.1 17.9 4.2 27.6-1.7 9.2-7.8 14.9-15.6 18.1-8 3.4-16 8-27.5 7.7zm14.6-39.6c-.4-1.9-.2-4.3-1.2-5.7-3.1-4.3-6.8-8.1-8.2-13.5-.4-1.7-2.4-2.1-3.8-2.9-9.9-5.7-20.2-10.2-32-9.9-4.6.1-9.8.9-13.8-.8-7-3-12.2.3-17.8 2.9-9.9 4.6-11.2 15.3-2.7 21.8 4.2 3.2 8.9 5.8 13.3 8.7 15 10 32.4 11 49.4 13 3.6.4 7.2-1.1 10.4-2.9 4-2.4 6.7-5.6 6.4-10.7zm781.5 88.8c-1.1-10 2-21 4.4-32 1.8-8.3 1.9-15.3-5.6-21.6-4.8-4-5.2-10.4-2.8-16.6 1.7-4.5 4.7-8.1 7.6-11.7 11.8-14.4 27.2-23.7 45.6-25.4 11.9-1.1 24.5 2.1 33.9 9.7 7.5 6 13.7 14.3 14.8 25.1 1.2 11.5-.7 22.6-2.6 33.7-.4 2.2-1.4 4.6-3 6.2-4.6 4.7-3.2 10.6-3.9 16-.4 3.2 1.7 5.6 4.7 7 2.1 1 4.4 1.8 6.2 3.1 5.4 3.9 5.8 8.2.5 12.1-8.1 6.1-16.8 10.9-27.6 7.2-5.4-1.9-10.3-1.2-14.7 3-6.4 6.1-14.9 9.6-21.1 16.2-3.9 4.2-9.1 5.4-14.4 6-4.2.5-8.2-.6-10.8-3.9-6.5-8.1-12.8-16.3-11.3-27.7.3-1.6.1-3.3.1-6.4zm17.5-18.5c-.6 3.8-1.3 7.4-.1 11 1.1 3.5 2 7 3 10.6 2.7 9 9 13.3 17.7 12.2 4.5-.6 16.4-12.9 16.5-17.3 0-.9-.2-2.2-.7-2.8-4.9-5.1-6.1-12.6-11-17.7-3.9-4.1-4.9-9.2-6.6-14.3-2.3-6.7.9-10.8 5.6-14.6 4.7-3.8 9.2-2.5 13.8.5 2.8 1.9 5.7 3.4 7.9 6.1 1.7 2.1 3.9 3.6 6.5 4.5 4.6 1.6 7.3 0 7.3-4.8 0-5 .2-10.2-1-14.9-1.7-6.3-2.7-13.8-8.7-17.4-6.6-3.9-13.1-8-19.9-11.4-3.3-1.6-7-2.2-10.7-1.8-2.5.2-5.1.9-5.6 3.4-2.2 10-6.6 19.6-6.2 30.1.2 4.8-.4 9.1-2.2 13.6-3.7 8-6.7 16.2-5.6 25zM163.1 837.6c1.6-4.4-.4-8.6-.6-12.8-.1-1.6-.2-3.5 1.9-4.1 1.4-.4 2.5.5 3.3 1.7 5.1 7 11.1 13.5 14.9 21.1 3.3 6.5 4.5 14.3.4 21.6-.7 1.2-1.5 2.2-1.4 3.6.4 3.7 1.2 7.6-2.3 10.1-4.3 3-8.7 5.9-14.2 6.8-15.4 2.3-26.2-4.5-34.4-16.7-5.8-8.6-10.2-17.6-12.9-27.7-2.3-8.7-8-12-17.4-10.8-8 1-16 .9-23.8-1-12.9-3.2-26.4-2.5-39.4-5.7-5.4-1.3-11.2-.2-16.8.8-7.7 1.4-13.7-1.7-18-8-3.1-4.6-2.9-10.8.1-15 3-4.1 7.3-5.1 13.2-4.1 11.4 2 23.2 5.9 34.4 4.8 22.2-2.2 44.1 4.6 66.2.8 4.2-.7 8.6-.3 12.7-1.9 5-2 9-.3 12.8 3.1 7.8 6.9 10.4 17.5 6.1 26.7-2.4 5.1-2.1 10.4-1.3 15.7.7 4.9 3.8 5.8 11 5.5 5-.2 6.3-2.8 6.2-7-.2-2.9-.5-5.2-.7-7.5zm-77.2 429.8c-.3-7.9 2.8-14.9 10.5-19.4 5.4-3.2 6.7-8 5.1-13.7-1.2-4.3-1.3-8.6.3-12.7 2-5.1 4.7-9.1 10.9-10.5 5.4-1.2 10.9-2.8 16-5.5 2.9-1.6 6.1-2.6 8.1-5.5 1.9-2.6 4.1-4.4 7.6-2.4 3.4 1.9 6.6 4.7 5.8 8.5-1.4 6.9-1.3 14.1-7.6 19.8-8.2 7.5-7.8 10.2-1.3 19.7 3.3 4.8 5.4 10 5.7 15.7.4 7.9-4.7 12.4-12.6 11.5-3-.4-5.9-1.3-8.8-1.6-2.1-.2-4.2.4-5 2.5-1 2.6.6 4.6 2.7 5.8 2 1.1 4.4 1.6 6.5 2.6 9.5 4.7 18.2 10.7 28.8 13.5 6.2 1.6 7.2 5.1 6.5 12.5-1.6 14.9-8.2 18.8-22.2 13.3-7.1-2.8-14.2-5.9-21.6-7.4-6-1.2-9.3-4.5-12-9.3-3.5-6.4-7.7-12.1-13.5-16.8-6.3-4.9-11-11.2-9.9-20.6zm800.3 462.1c.3-4.1-1.2-7.7-4.7-11-9.1-8.5-18.8-15.9-30.7-19.9-15.5-5.2-25.2-16.3-29.5-31.3-3.4-11.9-3.8-24.3 7.6-33.8 4.8-4 7.5-9.8 12.6-13.9 11.1-9 24.1-13.6 36.9-19 3.2-1.4 6.4-1.4 9.7-.4 3.6 1.1 8.4.4 8.5 6.4.1 5.8-3.2 10.8-8.8 11.6-4.6.7-9.3.6-13.9.6-14.4 0-24.1 8.8-32.5 18.8-5.8 6.9-4.6 15.9 1.3 22.9 5.8 6.9 11.9 13.3 20.1 17.6 11.1 5.9 20.8 14 32.5 19.2 11.3 5.1 15.1 15.7 12.8 28.2-1.6 8.4-4.7 15.9-10.8 22-5.6 5.7-11.2 11.3-16.8 17-5.5 5.6-13.1 6.2-20 8.5-3.7 1.2-5.4-1.9-6.7-4.6-2.8-5.5.3-23.2 4.8-27.5.9-.9 2.1-1.7 3.3-2.2 2.9-1.2 5.3-.9 5.7 2.9.2 1.6-.1 3.3 0 5 .2 2.6 1.7 4.3 4.2 5 2.4.7 4.5.2 6.3-1.7 4.3-4.7 8-13.4 8.1-20.4zm-118.4 443.1c8.3 0 16.6-.1 25 0 2.7 0 5.5.6 6.4 3.7.8 3-.8 5.3-3.1 6.8-3.9 2.5-8 4.9-12.2 6.7-12.8 5.3-26 8.8-40.2 8.4-6.2-.2-12.5 2-18.8 2.2-11.3.4-14.4.6-15.8-12.2-.5-4.3-1.6-8.6-.6-12.9 2.8-12.3 3.3-25 4.1-37.4.9-14.4 5.1-28.1 5.5-42.4 0-2 .4-4 1-5.9 2.1-6.1 2.6-12.1 1.9-18.6-.8-7.5 1-14.6 8.8-18.5 5.6-2.8 10.2-1.4 11.7 4.5 1.5 5.8 3.2 12 .2 17.6-3 5.7-2.6 11.6-2.8 17.5-.7 17.3-1.9 34.5-7 51.1-2.6 8.5.1 16.5 1.1 24.6.5 4.3 5.2 4.7 8.9 4.8 8.6.1 17.3 0 25.9 0zm262.5-548.6c-1-7.6-1.9-15.2-2.9-22.7-1.1-8.4 1.6-14.1 7.9-17.9 4.3-2.6 8.3-1.7 12.3.4s4.2 5.5 3.4 9.4c-1.4 7.4 2.3 14.3 2.7 21.6.4 8.5 3.1 17 4.8 25.5.7 3.3 1.6 6.5 3.7 9.2 8.7 11.4 11.9 12.3 25.1 6.1 9-4.3 17.7-9.1 26.5-13.8 3.2-1.7 7.4-4.6 9.8-.9 2.3 3.6-1.7 6.6-4.9 8.5-18 10.5-33.2 25.4-52.5 33.9-11.3 5-18.4 2.5-22.9-8.8-3.9-9.8-6.5-20.1-10.8-29.8-2.7-6.1-2.1-13.6-2.9-20.5.1-.1.4-.2.7-.2zm-161.8 549.8c1-7.8 4-15.2 10.2-20.6 3.1-2.8 5.9-5.4 6.8-9.4 2.5-11.6 11.7-17.2 20.5-23.1 3.8-2.5 14.3-.3 17.5 3.6 9.8 11.9 14.4 25.9 16.3 41 .3 2.4-.3 4.7-3 5.7-2.8 1-5.9.6-7.5-1.3-4.1-4.8-10-7.7-13-13.6-.9-1.8-1.8-3.6-3.2-5-3.6-3.5-7.9-3.4-11.1.6-4.1 5.2-7.5 10.8-10.1 17-3.1 7.2-6 14.9-14.2 18.3-5.9 2.5-6.8 2.1-7.9-4.1-.6-2.8-.9-5.8-1.3-9.1zm145.4-68.5c1 8.6-1.1 16.2-6.1 23.4-6.2 9-11.7 18.3-20.1 25.8-11.9 10.7-28.7 8.2-35.3-6.6-5.2-11.7-5-23.9-.8-36.1 1.5-4.2 4.3-5.7 8.5-5 4.4.7 4.7 4.1 4.7 7.6 0 2.3-.4 4.7-.4 7 0 5.5 1.6 10.5 5.4 14.6 4.4 4.7 7.7 5.4 13.2 2.3 5.5-3 9.5-7.5 10.8-13.7 1.9-9.1 7-17.4 6.9-27 0-2.1 1.5-4.4 2.5-6.4 1.3-2.6 2.3-6.1 6.3-5.1 3.5.9 4.1 4.2 4.3 7.2.3 4 .1 8 .1 12zm-883.8-942.4c-1.7-.4-4.6-1-7.5-1.7-2.6-.7-5.2-2.7-7.6-2.2-10.1 1.8-13-6.2-17.3-12.1-2.5-3.5-2.2-7.6.4-11.2 2.7-3.9 6.4-4.3 10.6-2.7 7.9 3 16.4 3.1 24.6 3.5 8.7.4 11.8 6 15.1 12.2.9 1.7.5 3.3-.6 4.6-4.1 5.2-9 9.5-17.7 9.6zm695.8 1011.7c0-6.6 1.3-13.2 1.1-19.9-.2-5 2-9.8 4.9-14 2.4-3.3 5.8-4.5 9.7-3.4 4 1.1 4.6 4.5 4.4 8-.1 2.7-.2 5.4-.9 7.9-2.5 10.1-2.4 20.4-2.3 30.7 0 2-.1 4-.4 6-.5 3.3-2.4 5.5-5.7 6.2-3.5.7-5.3-1.3-7.1-4.1-3.5-5.5-3.6-11.4-3.7-17.4zm-788-1044.8c-.3-4.4.7-6.2 4.4-5.9 5 .5 10.2.1 11.7 6.8 1 4.2 5.2 5.8 7.8 8.8 4.6 5.2.1 20.1-6.7 21.2-4.8.8-8.1-2.3-10.5-6.1-4.9-8-5.1-17.2-6.7-24.8zm22.8 206.9c-3 .1-5.9-1-8-4.1-3-4.5-4.8-9.5-5.5-14.8-.8-5.4 1.9-8.2 7.3-8.2 9.6.1 17 5 23.6 11.4 1.2 1.2 2 2.6 1.2 4.5-1.3 3.1-14.3 11.2-18.6 11.2zm762.2 760.4c4.6.1 8.1 1.8 10.8 5 4.8 5.7 4 9.3-3 11.8-4 1.4-8.3 2.3-12.4 3.3-3.6.9-6.7.3-8.1-3.6-1.3-3.7-3-7.9.6-11.1 3.5-3 7.9-4.6 12.1-5.4zM158.6 703.9c0-5.4 3.2-8.8 8.6-8.9 5.3-.1 9.7 4.9 10.1 11.4.2 5-3.3 8.1-9.2 7.9-5.9-.1-9.5-4.1-9.5-10.4zm447.5-192c-1.1-1.6-.9-2.9-.5-4.2.6-2.1.3-4.7 2.5-6.1.9-.6 1.9.1 2.4 1 1.5 2.6.6 5-.9 7.3-.8 1-1.5 2.2-3.5 2z"/></svg>